<?xml version="1.0" encoding="UTF-8" standalone="no"?>
<!DOCTYPE svg PUBLIC "-//W3C//DTD SVG 1.1//EN" "http://www.w3.org/Graphics/SVG/1.1/DTD/svg11.dtd">
<svg width="100%" height="100%" viewBox="0 0 2709 505" version="1.1" xmlns="http://www.w3.org/2000/svg" xmlns:xlink="http://www.w3.org/1999/xlink" xml:space="preserve" xmlns:serif="http://www.serif.com/" style="fill-rule:evenodd;clip-rule:evenodd;stroke-linejoin:round;stroke-miterlimit:2;">
    <g transform="matrix(4.16667,0,0,4.16667,0,0)">
        <path d="M54.799,25.35L54.799,120.788C56.117,120.901 57.446,120.973 58.787,121.001L58.787,27.139C58.787,17.662 59.679,8.931 61.435,1.011C60.962,0.999 60.487,0.992 60.012,0.992C56.591,0.992 53.239,1.283 49.975,1.833C52.97,8.478 54.799,16.253 54.799,25.35Z" style="fill:rgb(132,196,154);fill-rule:nonzero;"/>
        <path d="M87.941,61.328C91.378,58.989 95.481,57.326 100.163,56.37C100.163,56.329 111.299,54.745 119.046,50.168C117.499,41.687 114.169,33.83 109.459,26.996C106.584,28.681 103.63,30.711 100.759,33.159C92.008,40.622 86.62,51.767 83.463,65.149C84.795,63.729 86.292,62.451 87.941,61.328Z" style="fill:rgb(132,196,154);fill-rule:nonzero;"/>
        <path d="M97.636,29.743C100.33,27.204 103.279,24.945 106.437,22.976C103.479,19.37 100.109,16.117 96.399,13.284C87.619,21.331 76.606,34.864 73.135,54.259C72.281,59.03 72.098,62.807 72.016,64.537L72.016,119.814C73.36,119.541 74.687,119.22 75.997,118.859L75.997,92.014C75.997,84.331 76.565,77.072 77.687,70.436C78.735,64.235 80.293,58.423 82.315,53.163C85.91,43.816 91.065,35.937 97.636,29.743Z" style="fill:rgb(132,196,154);fill-rule:nonzero;"/>
        <path d="M63.415,120.918C64.751,120.844 66.076,120.725 67.388,120.564L67.388,32.237C67.388,21.096 68.612,10.978 71.036,2.007C69.426,1.708 67.795,1.47 66.144,1.302C64.336,9.087 63.415,17.728 63.415,27.139C63.415,27.139 63.496,57.709 63.415,59.439L63.415,120.918Z" style="fill:rgb(132,196,154);fill-rule:nonzero;"/>
        <path d="M92.272,10.393C87.186,7.145 81.576,4.645 75.6,3.041C73.231,11.676 72.016,21.449 72.016,32.237L72.016,39.215C73.236,35.51 74.395,31.895 76.285,28.902C81.138,21.216 87.029,15.024 92.272,10.393Z" style="fill:rgb(132,196,154);fill-rule:nonzero;"/>
        <path d="M48.813,27.687C49.292,28.619 49.745,29.593 50.171,30.605L50.171,25.35C49.976,16.789 47.944,9.358 44.746,2.954C39.326,4.376 34.208,6.537 29.501,9.322C42.017,16.356 47.775,25.667 48.813,27.687Z" style="fill:rgb(132,196,154);fill-rule:nonzero;"/>
        <path d="M41.492,93.218C41.492,92.052 41.278,88.174 38.741,82.613C36.043,76.699 12.004,70.98 0.333,54.66C0.114,56.745 0,58.862 0,61.005C0,87.697 17.429,110.316 41.527,118.111L41.492,93.218Z" style="fill:rgb(137,130,183);fill-rule:nonzero;"/>
        <path d="M41.558,77.969C43.715,60.429 32.772,38.647 12.362,24.524C7.341,31.073 3.64,38.685 1.654,46.967C11.833,65.716 37.949,70.842 41.558,77.969Z" style="fill:rgb(132,196,154);fill-rule:nonzero;"/>
        <path d="M101.265,60.867C93.317,62.442 87.53,66.188 84.047,72.021C81.27,76.671 81.062,80.87 81.06,80.912L81.054,80.912C80.769,84.472 80.625,88.172 80.625,92.014L80.625,117.382C103.615,108.974 120.024,86.906 120.024,61.005C120.024,58.945 119.92,56.909 119.717,54.902C115.435,57.176 109.52,59.211 101.265,60.867Z" style="fill:rgb(137,130,183);fill-rule:nonzero;"/>
        <path d="M46.191,119.414C47.502,119.722 48.829,119.987 50.171,120.209L50.171,54.364C50.132,52.724 50.017,50.452 49.718,47.838C49.163,42.987 47.916,35.881 44.697,29.802C40.248,21.403 31.835,15.237 25.886,11.638C22.204,14.188 18.82,17.138 15.8,20.428C31.934,30.918 47.413,48.896 46.191,78.791L46.191,119.414Z" style="fill:rgb(132,196,154);fill-rule:nonzero;"/>
        <path d="M553.642,64.739L553.642,17.32L587.311,17.32L587.311,24.361L560.653,24.361L560.653,37.315L584.495,37.315L584.495,44.356L560.653,44.356L560.653,57.698L587.623,57.698L587.623,64.739L553.642,64.739Z" style="fill:rgb(137,130,183);fill-rule:nonzero;"/>
        <path d="M592.971,64.739L592.971,17.32L626.642,17.32L626.642,24.365L599.982,24.365L599.982,37.32L623.829,37.32L623.829,44.356L599.982,44.356L599.982,57.694L626.954,57.694L626.954,64.739L592.971,64.739Z" style="fill:rgb(137,130,183);fill-rule:nonzero;"/>
        <path d="M484.664,64.767L484.664,24.374L469.994,24.374L469.994,17.297L506.407,17.297L506.407,24.374L491.736,24.374L491.736,64.767L484.664,64.767Z" style="fill:rgb(137,130,183);fill-rule:nonzero;"/>
        <path d="M536.706,45.935C542.953,44.228 547.685,39.523 547.662,31.963C547.676,27.554 545.938,23.767 542.948,21.239C539.966,18.697 535.803,17.324 530.836,17.32L511.002,17.32L511.002,64.739L518.011,64.739L518.011,47.249L518.044,47.249L518.044,40.277L518.011,40.277L518.011,24.429L530.454,24.429C537.317,24.53 540.568,27.436 540.592,32.159C540.58,37.092 536.71,40.203 530.396,40.277L522.4,40.277L522.4,47.249L528.972,47.249L541.646,64.739L550.43,64.739L536.706,45.935Z" style="fill:rgb(137,130,183);fill-rule:nonzero;"/>
        <path d="M135,64.598L135,17.365L142.009,17.365L142.009,57.52L166.608,57.52L166.608,64.598L135,64.598Z" style="fill:rgb(137,130,183);fill-rule:nonzero;"/>
        <path d="M169.894,64.598L169.894,17.365L203.565,17.365L203.565,24.379L176.907,24.379L176.907,37.279L200.756,37.279L200.756,44.297L176.907,44.297L176.907,57.584L203.875,57.584L203.875,64.598L169.894,64.598Z" style="fill:rgb(137,130,183);fill-rule:nonzero;"/>
        <path d="M253.635,64.598L245.988,64.598L240.87,52.747L218.37,52.747L213.188,64.598L205.792,64.598L226.763,17.041L232.664,17.041L253.635,64.598ZM221.352,45.798L237.893,45.798L229.649,26.811L221.352,45.798Z" style="fill:rgb(137,130,183);fill-rule:nonzero;"/>
        <path d="M333.257,64.593L306.547,29.795L306.547,64.593L299.663,64.593L299.663,17.365L305.787,17.365L331.81,51.323L331.81,17.365L338.693,17.365L338.693,64.593L333.257,64.593Z" style="fill:rgb(137,130,183);fill-rule:nonzero;"/>
        <rect x="346.921" y="17.365" width="7.011" height="47.228" style="fill:rgb(137,130,183);fill-rule:nonzero;"/>
        <path d="M395.753,64.598L369.043,29.795L369.043,64.598L362.154,64.598L362.154,17.365L368.283,17.365L394.302,51.323L394.302,17.365L401.189,17.365L401.189,64.598L395.753,64.598Z" style="fill:rgb(137,130,183);fill-rule:nonzero;"/>
        <path d="M427.201,38.41L427.201,45.364L440.493,45.364L440.493,54.682C437.688,56.863 433.441,58.597 428.926,58.593C418.78,58.515 412.729,51.237 412.673,41.089C412.69,31.734 419.173,24.561 428.118,24.415C437.596,24.251 440.838,24.251 440.838,24.251L440.86,17.356C440.86,17.356 429.011,17.324 428.427,17.324C414.799,17.351 405.499,28.175 405.477,41.217C405.477,47.961 407.708,54.08 411.765,58.483C415.816,62.886 421.652,65.537 428.739,65.537C436.371,65.532 442.695,62.293 446.928,58.424L447.324,58.068L447.324,38.41L427.201,38.41Z" style="fill:rgb(137,130,183);fill-rule:nonzero;"/>
        <path d="M282.725,45.871C288.972,44.164 293.699,39.483 293.686,31.948C293.699,27.554 291.954,23.79 288.967,21.267C285.988,18.729 281.817,17.365 276.853,17.365L257.017,17.365L257.017,64.598L264.035,64.598L264.035,47.176L264.069,47.176L264.069,40.226L264.035,40.226L264.035,24.438L276.474,24.438C283.336,24.548 286.59,27.436 286.608,32.15C286.599,37.055 282.732,40.158 276.415,40.226L268.424,40.226L268.424,47.176L274.991,47.176L287.662,64.598L296.451,64.598L282.725,45.871Z" style="fill:rgb(137,130,183);fill-rule:nonzero;"/>
        <path d="M638.267,18.103L635.915,18.103L635.915,17.372L641.417,17.372L641.417,18.103L639.066,18.103L639.066,24.375L638.267,24.375L638.267,18.103Z" style="fill:rgb(137,130,183);fill-rule:nonzero;"/>
        <path d="M642.902,17.372L643.702,17.372L646.254,21.194L648.805,17.372L649.604,17.372L649.604,24.375L648.814,24.375L648.814,18.703L646.264,22.454L646.224,22.454L643.673,18.713L643.673,24.375L642.902,24.375L642.902,17.372Z" style="fill:rgb(137,130,183);fill-rule:nonzero;"/>
        <rect x="135.049" y="81.073" width="4.114" height="23.411" style="fill:rgb(137,130,183);fill-rule:nonzero;"/>
        <path d="M162.741,81.073L166.554,81.073L179.096,97.261L179.096,81.073L183.143,81.073L183.143,104.484L179.698,104.484L166.788,87.829L166.788,104.484L162.741,104.484L162.741,81.073Z" style="fill:rgb(137,130,183);fill-rule:nonzero;"/>
        <path d="M212.242,84.886L204.817,84.886L204.817,81.073L223.813,81.073L223.813,84.886L216.389,84.886L216.389,104.484L212.242,104.484L212.242,84.886Z" style="fill:rgb(137,130,183);fill-rule:nonzero;"/>
        <path d="M245.486,81.073L262.845,81.073L262.845,84.752L249.6,84.752L249.6,90.839L261.34,90.839L261.34,94.519L249.6,94.519L249.6,100.806L263.012,100.806L263.012,104.484L245.486,104.484L245.486,81.073Z" style="fill:rgb(137,130,183);fill-rule:nonzero;"/>
        <path d="M295.354,92.679C298.298,92.679 300.17,91.14 300.17,88.766L300.17,88.699C300.17,86.191 298.365,84.819 295.321,84.819L289.334,84.819L289.334,92.679L295.354,92.679ZM285.22,81.073L295.655,81.073C298.599,81.073 300.906,81.943 302.412,83.414C303.649,84.685 304.351,86.425 304.351,88.464L304.351,88.531C304.351,92.378 302.043,94.686 298.766,95.622L305.087,104.484L300.237,104.484L294.485,96.324L289.334,96.324L289.334,104.484L285.22,104.484L285.22,81.073Z" style="fill:rgb(137,130,183);fill-rule:nonzero;"/>
        <path d="M326.727,81.073L330.539,81.073L343.082,97.261L343.082,81.073L347.129,81.073L347.129,104.484L343.684,104.484L330.773,87.829L330.773,104.484L326.727,104.484L326.727,81.073Z" style="fill:rgb(137,130,183);fill-rule:nonzero;"/>
        <path d="M384.654,95.187L380.607,85.822L376.594,95.187L384.654,95.187ZM378.769,80.906L382.58,80.906L392.882,104.484L388.533,104.484L386.158,98.832L375.089,98.832L372.682,104.484L368.467,104.484L378.769,80.906Z" style="fill:rgb(137,130,183);fill-rule:nonzero;"/>
        <path d="M416.963,84.886L409.538,84.886L409.538,81.073L428.535,81.073L428.535,84.886L421.11,84.886L421.11,104.484L416.963,104.484L416.963,84.886Z" style="fill:rgb(137,130,183);fill-rule:nonzero;"/>
        <rect x="450.442" y="81.073" width="4.114" height="23.411" style="fill:rgb(137,130,183);fill-rule:nonzero;"/>
        <path d="M497.267,92.846L497.267,92.78C497.267,88.231 493.955,84.451 489.307,84.451C484.657,84.451 481.413,88.163 481.413,92.712L481.413,92.78C481.413,97.327 484.725,101.107 489.373,101.107C494.021,101.107 497.267,97.395 497.267,92.846ZM477.099,92.846L477.099,92.78C477.099,86.191 482.183,80.672 489.373,80.672C496.564,80.672 501.58,86.124 501.58,92.712L501.58,92.78C501.58,99.367 496.497,104.887 489.307,104.887C482.116,104.887 477.099,99.435 477.099,92.846Z" style="fill:rgb(137,130,183);fill-rule:nonzero;"/>
        <path d="M523.89,81.073L527.702,81.073L540.243,97.261L540.243,81.073L544.291,81.073L544.291,104.484L540.846,104.484L527.936,87.829L527.936,104.484L523.89,104.484L523.89,81.073Z" style="fill:rgb(137,130,183);fill-rule:nonzero;"/>
        <path d="M581.817,95.187L577.77,85.822L573.757,95.187L581.817,95.187ZM575.93,80.906L579.743,80.906L590.045,104.484L585.696,104.484L583.321,98.832L572.252,98.832L569.843,104.484L565.63,104.484L575.93,80.906Z" style="fill:rgb(137,130,183);fill-rule:nonzero;"/>
        <path d="M611.383,81.073L615.497,81.073L615.497,100.739L627.805,100.739L627.805,104.484L611.383,104.484L611.383,81.073Z" style="fill:rgb(137,130,183);fill-rule:nonzero;"/>
    </g>
</svg>
