<?xml version="1.0" encoding="UTF-8"?>
<svg width="1200pt" height="1200pt" version="1.1" viewBox="0 0 1200 1200" xmlns="http://www.w3.org/2000/svg">
 <path d="m661.04 576.17c-95.18 281.12-305.22 434.94-591.57 434.94v13.387c292.5 0 507.09-157.7 604.29-444.04 127.58-376.3 516.87-350.2 520.75-349.93l1.2031-13.387c-4.2812-0.67188-404.55-25.168-534.67 359.04z"/>
 <path d="m1139.2 15.262c-10.793 0.29688-21.301 3.5391-30.387 9.3711-12.695-8.375-28.219-11.305-43.09-8.1328-14.875 3.1719-27.852 12.176-36.027 25-10.859-16.387-29.074-26.395-48.727-26.773-21.762 0-41.871 11.609-52.75 30.453-10.883 18.848-10.883 42.066 0 60.91 10.879 18.848 30.988 30.457 52.75 30.457 19.652-0.37891 37.867-10.387 48.727-26.773 8.1758 12.82 21.152 21.828 36.027 25 14.871 3.1719 30.395 0.24219 43.09-8.1328 9.0859 5.832 19.594 9.0703 30.387 9.3711 21.762 0 41.871-11.609 52.75-30.457 10.883-18.844 10.883-42.062 0-60.91-10.879-18.844-30.988-30.453-52.75-30.453z"/>
 <path d="m894.94 62.156c7.7266 32.738-12.551 65.543-45.289 73.273-32.742 7.7266-65.547-12.551-73.273-45.293-7.7266-32.738 12.551-65.543 45.289-73.273 32.742-7.7266 65.547 12.551 73.273 45.293"/>
 <path d="m532 137.08c16-0.035156 31.348-6.3789 42.699-17.66 11.355-11.277 17.801-26.578 17.941-42.582 0.23828 21.68 11.984 41.602 30.84 52.305 18.855 10.703 41.98 10.574 60.715-0.33594 18.738-10.91 30.262-30.957 30.262-52.637 0-21.684-11.523-41.73-30.262-52.637-18.734-10.91-41.859-11.039-60.715-0.33594-18.855 10.703-30.602 30.621-30.84 52.305-0.21094-16.082-6.7891-31.418-18.285-42.66-11.5-11.238-26.984-17.465-43.062-17.312-16.082 0.15234-31.445 6.6719-42.727 18.129-11.281 11.457-17.566 26.918-17.473 43 0.09375 16.078 6.5547 31.465 17.973 42.789 11.414 11.328 26.852 17.668 42.934 17.633z"/>
 <path d="m0 305.49v827.71h31.996v-13.387h-18.609v-179.25h18.609v-13.387h-18.609v-193.84h18.609v-13.387h-18.609v-193.84h18.609v-13.387h-18.609v-193.84h18.609v-13.387h-18.609v-193.84h18.609v-13.391h-31.996z"/>
 <path d="m536.55 1039.6c-14.305 0.019531-28.289 4.2617-40.195 12.191-11.906 7.9297-21.207 19.195-26.738 32.387-9.5195-22.887-30.082-39.316-54.504-43.551-24.422-4.2305-49.312 4.3203-65.98 22.668-10.746-11.848-25.125-19.789-40.875-22.574-15.75-2.7891-31.98-0.26172-46.141 7.1797-14.156-7.4414-30.387-9.9688-46.137-7.1797-15.75 2.7852-30.129 10.727-40.875 22.574-13.223-14.516-31.762-23.051-51.387-23.66s-38.66 6.7617-52.754 20.426c-14.098 13.668-22.055 32.461-22.055 52.098 0 19.633 7.957 38.43 22.055 52.094 14.094 13.668 33.129 21.035 52.754 20.426s38.164-9.1445 51.387-23.66c10.746 11.848 25.125 19.789 40.875 22.578 15.75 2.7852 31.98 0.25781 46.137-7.1836 14.16 7.4414 30.391 9.9688 46.141 7.1836 15.75-2.7891 30.129-10.73 40.875-22.578 16.668 18.352 41.559 26.902 65.98 22.668 24.422-4.2344 44.984-20.664 54.504-43.551 6.7812 16.23 19.23 29.445 35.027 37.18 15.797 7.7383 33.867 9.4766 50.848 4.8867 16.98-4.5898 31.715-15.191 41.465-29.836 9.75-14.641 13.844-32.324 11.531-49.762-2.3164-17.438-10.891-33.441-24.121-45.031-13.234-11.586-30.227-17.977-47.816-17.973zm-414.99 131.73c-20.23 0.03125-39.074-10.273-49.961-27.324-10.891-17.051-12.312-38.48-3.7734-56.82 8.5391-18.34 25.852-31.043 45.91-33.688 20.055-2.6445 40.07 5.1445 53.07 20.645l-1.6055 3.2109c-0.75 1.207-1.4219 2.457-2.0078 3.75-0.9375 2.0078-1.7422 4.0156-2.543 6.0234-0.80469 2.0078-0.9375 2.543-1.3398 3.8828-0.66406 2.2891-1.1992 4.6133-1.6055 6.9609-0.33203 1.1445-0.60156 2.3047-0.80469 3.4805-1.0703 7.0977-1.0703 14.32 0 21.418 0.19141 1.1758 0.45703 2.3398 0.80469 3.4805 0.39062 2.3516 0.92969 4.6758 1.6055 6.9609 0 1.3398 0.9375 2.543 1.3398 3.8828 0.40234 1.3398 1.6055 4.0156 2.543 5.8906s1.3398 2.6758 2.0078 4.0156l1.6055 3.0781c-11.188 13.43-27.77 21.18-45.246 21.152zm107.09 0c-15.797 0.039063-30.949-6.2578-42.07-17.48-11.121-11.219-17.281-26.43-17.102-42.223 0.035157-15.684 6.2812-30.715 17.371-41.801 11.09-11.09 26.117-17.336 41.801-17.371 6.8984-0.019531 13.746 1.2031 20.215 3.6133-1.3398 1.0703-2.543 2.4102-3.8828 3.6133l-1.4727 1.4727v0.003907c-2.0938 2.0234-4.0195 4.2188-5.7578 6.5586-0.39062 0.46484-0.74609 0.95703-1.0703 1.4727-1.3398 1.875-2.543 3.75-3.75 5.6211-1.2031 1.875-0.9375 1.875-1.3398 2.6758-0.40234 0.80469-1.7422 3.3477-2.543 5.0859l-1.4688 3.6172c-0.66797 1.7422-1.2031 3.4805-1.7422 5.2227-0.53516 1.7422-0.66797 2.1406-0.9375 3.2109-0.26953 1.0703-0.80469 3.8828-1.0703 5.7578-0.26953 1.875 0 1.875 0 2.8125v8.9688 8.9688 2.6758c0 0.9375 0.66797 4.0156 1.0703 5.8906 0.40234 1.875 0.66797 2.1406 0.9375 3.2109 0.26953 1.0703 1.0703 3.4805 1.7422 5.2227l1.2031 3.0781c0.80469 1.7422 1.6055 3.3477 2.543 5.0859l1.3398 2.543c1.2031 2.0078 2.543 4.0156 3.8828 5.8906v0.003906c0.26562 0.47656 0.57812 0.92188 0.9375 1.3359 1.7422 2.2773 3.75 4.5508 5.7578 6.6953l1.4727 1.3398h-0.003906c1.2305 1.2695 2.5273 2.4766 3.8828 3.6133-6.3828 2.3789-13.137 3.6016-19.945 3.6133zm66.934 0c-10.59 0.011719-20.988-2.8086-30.121-8.1641-18.004-10.684-29.047-30.07-29.047-51.004 0-20.938 11.043-40.324 29.047-51.004 12.113-7.0586 26.34-9.5898 40.141-7.1367 13.805 2.4492 26.289 9.7227 35.227 20.523l-1.6055 3.2109c-0.74609 1.207-1.418 2.457-2.0078 3.75-0.9375 2.0078-1.7422 4.0156-2.543 6.0234-0.80469 2.0078-0.9375 2.543-1.3398 3.8828-0.66016 2.2891-1.1992 4.6133-1.6055 6.9609-0.33203 1.1445-0.59766 2.3047-0.80469 3.4805-1.0703 7.0977-1.0703 14.32 0 21.418 0.19141 1.1758 0.46094 2.3398 0.80469 3.4805 0.39453 2.3516 0.92969 4.6758 1.6055 6.9609 0 1.3398 0.9375 2.543 1.3398 3.8828 0.40234 1.3398 1.6055 4.0156 2.543 5.8906s1.3398 2.6758 2.0078 4.0156l1.6055 3.0781c-11.262 13.277-27.836 20.879-45.246 20.75zm107.09 0c-15.797 0.039063-30.949-6.2578-42.07-17.48-11.117-11.219-17.277-26.43-17.098-42.223 0-15.695 6.2344-30.746 17.328-41.84 11.098-11.098 26.148-17.332 41.84-17.332 15.695 0 30.746 6.2344 41.84 17.332 11.098 11.094 17.332 26.145 17.332 41.84 0 15.691-6.2344 30.742-17.332 41.836-11.094 11.098-26.145 17.332-41.84 17.332zm133.87 0h0.003906c-15.664 0-30.684-6.2109-41.777-17.27-11.09-11.059-17.344-26.062-17.391-41.723-0.046875-15.664 6.1172-30.703 17.141-41.828 11.027-11.125 26.012-17.426 41.672-17.52 15.664-0.09375 30.723 6.0273 41.879 17.016 11.16 10.992 17.504 25.957 17.645 41.621 0.14453 15.785-6.0273 30.973-17.141 42.184-11.109 11.215-26.242 17.52-42.027 17.52z"/>
</svg>
